<svg width="18" height="19" viewBox="0 0 18 19" fill="none" xmlns="http://www.w3.org/2000/svg">
<g clip-path="url(#clip0_2195_32307)">
<path fill-rule="evenodd" clip-rule="evenodd" d="M17.3727 10.6535C17.4751 10.1324 17.5262 9.58295 17.5262 9.03348C17.5262 8.66211 17.5016 8.30022 17.4542 7.94685C17.4192 7.68727 17.188 7.49874 16.9265 7.49874H9.53232C9.23864 7.49874 8.9999 7.73748 8.9999 8.03116V10.1211C8.9999 10.4147 9.23864 10.6535 9.53232 10.6535H13.5823C13.7491 10.6535 13.8713 10.824 13.8087 10.9784C12.923 13.1668 10.5972 14.6031 7.99948 14.1227C6.00435 13.7542 4.3692 12.1721 3.94098 10.1893C3.21435 6.82421 5.75709 3.85141 8.9999 3.85141C10.0629 3.85141 11.0481 4.17067 11.8695 4.71731C12.0893 4.8632 12.3763 4.84899 12.562 4.66046L14.1744 3.01867C14.3942 2.79415 14.381 2.42088 14.1308 2.23046C12.7657 1.19215 11.0775 0.5612 9.24148 0.51099C4.62593 0.383095 0.628984 4.13278 0.478353 8.74737C0.320142 13.5865 4.19867 17.5598 8.9999 17.5598C13.1522 17.5598 16.6139 14.5851 17.3727 10.6535Z" fill="currentColor"/>
</g>
<defs>
<clipPath id="clip0_2195_32307">
<rect width="18" height="18" fill="currentColor" transform="translate(0 0.5)"/>
</clipPath>
</defs>
</svg>
