<svg width="20" height="20" viewBox="0 0 20 20" fill="none" xmlns="http://www.w3.org/2000/svg">
<path fill-rule="evenodd" clip-rule="evenodd" d="M2.51318 4.97141C2.51562 3.79493 3.40507 2.74008 4.55965 2.54143C4.7964 2.50008 7.5734 2.50576 8.72233 2.50657C9.85909 2.50738 10.828 2.91603 11.6307 3.7171C13.335 5.41816 15.0377 7.12085 16.7379 8.82518C17.7441 9.83302 17.7579 11.38 16.7558 12.3911C15.3101 13.8505 13.8571 15.3027 12.3985 16.7484C11.3883 17.7497 9.84125 17.7367 8.83259 16.7305C7.11287 15.0156 5.39315 13.3008 3.68074 11.5786C3.01831 10.9122 2.62751 10.107 2.54075 9.16568C2.47102 8.41327 2.51156 5.616 2.51318 4.97141Z" stroke="currentColor" stroke-width="1.5" stroke-linecap="round" stroke-linejoin="round"/>
<path fill-rule="evenodd" clip-rule="evenodd" d="M8.25593 6.93007C8.25268 7.65493 7.64702 8.25087 6.91487 8.24925C6.18757 8.24763 5.5819 7.64115 5.58596 6.91872C5.59082 6.16467 6.18757 5.57685 6.94648 5.58009C7.66647 5.58252 8.25917 6.19306 8.25593 6.93007Z" stroke="currentColor" stroke-width="1.5" stroke-linecap="round" stroke-linejoin="round"/>
</svg>
